P3
# CREATOR: GIMP PNM Filter Version 1.1
255 1
255
121
79
79
119
76
76
118
75
75
117
72
72
117
70
70
118
67
67
120
64
64
121
60
60
124
56
56
127
54
54
129
51
51
132
49
49
134
47
47
136
46
46
137
44
44
138
42
42
138
39
39
138
38
38
138
37
37
138
36
36
138
35
35
137
34
34
137
34
34
137
35
35
137
35
35
137
36
36
137
37
37
137
39
39
136
41
41
137
42
42
138
43
43
139
43
43
140
43
43
141
42
42
143
41
41
144
40
40
145
38
38
146
37
37
146
36
36
147
36
36
147
36
36
146
35
35
145
34
34
144
33
33
143
33
33
141
31
31
139
30
30
138
30
30
136
29
29
135
28
28
134
29
29
134
30
30
133
30
30
133
31
31
133
31
31
133
32
32
133
32
32
134
33
33
134
34
34
135
34
34
135
35
35
135
36
36
135
37
37
136
38
38
136
39
39
136
40
40
137
41
41
138
42
42
138
44
44
140
44
44
142
44
44
144
44
44
145
44
44
148
43
43
150
42
42
153
40
40
156
39
39
158
38
38
160
36
36
163
35
35
165
35
35
167
34
34
168
34
34
170
35
35
171
35
35
172
36
36
173
37
37
174
38
38
174
39
39
175
40
40
175
41
41
176
41
41
176
42
42
176
42
42
176
42
42
176
42
42
176
42
42
176
42
42
176
42
42
176
43
43
176
43
43
176
44
44
178
47
47
180
50
50
183
55
55
187
59
59
190
63
63
192
66
66
194
69
69
196
71
71
197
73
73
199
76
76
200
77
77
201
79
79
202
80
80
203
80
80
203
80
80
204
80
80
204
79
79
205
79
79
205
78
78
206
76
76
206
76
76
206
75
75
206
73
73
207
72
72
207
72
72
208
70
70
208
70
70
209
71
71
211
72
72
213
73
73
213
74
74
215
76
76
217
79
79
220
82
82
223
85
85
225
87
87
228
90
90
230
92
92
232
95
95
233
96
96
234
98
98
236
99
99
236
100
100
237
101
101
236
102
102
236
103
103
237
104
104
237
106
106
237
107
107
237
110
110
236
111
111
236
113
113
236
116
116
236
118
118
236
121
121
237
124
124
237
127
127
237
129
129
237
131
131
237
133
133
237
135
135
237
136
136
237
138
138
238
139
139
237
141
141
237
143
143
237
145
145
236
148
148
236
150
150
235
152
152
234
156
156
233
157
157
232
160
160
231
161
161
230
163
163
230
164
164
229
164
164
229
165
165
227
165
165
227
164
164
227
165
165
226
164
164
225
164
164
224
162
162
223
162
162
222
162
162
221
161
161
220
160
160
219
160
160
218
159
159
216
158
158
215
157
157
214
156
156
213
156
156
212
156
156
210
154
154
209
154
154
207
153
153
205
152
152
204
151
151
202
150
150
201
149
149
199
148
148
198
148
148
197
147
147
196
146
146
194
145
145
193
144
144
192
143
143
190
141
141
187
138
138
184
135
135
180
131
131
176
125
125
170
119
119
163
111
111
156
103
103
149
94
94
141
85
85
134
76
76
127
68
68
122
60
60
117
54
54
114
48
48
112
44
44
111
41
41
112
39
39
115
37
37
119
36
36
123
35
35
129
35
35
135
35
35
142
35
35
148
36
36
154
37
37
159
39
39
164
42
42
168
47
47
173
53
53
177
62
62
182
72
72
186
85
85
191
99
99
196
115
115
201
131
131
206
148
148
211
163
163
215
178
178
219
190
190
222
201
201
225
210
210
227
217
217
228
222
222
